# xmcd
#
# Track frame offsets:
#	150
#	18187
#	36752
#	60120
#	78277
#	97002
#
# Disc length: 1585 seconds
#
# Revision: 0
# Processed by: cddbd v1.4PL0 Copyright (c) Steve Scherf et al.
# Submitted via: EasyCDDAExtractor 4.6.0.1
#
DISCID=37062f06
DTITLE=The Ocean Stairs
DYEAR=1992
DGENRE=Blues
TTITLE0=The Cost
TTITLE1=A Million Dreams
TTITLE2=Shipping
TTITLE3=Plain To See
TTITLE4=Workin' Thru the Winter
TTITLE5=The Foolish Upsetter
EXTD=
EXTT0=
EXTT1=
EXTT2=
EXTT3=
EXTT4=
EXTT5=
PLAYORDER=
